<svg width="600" height="600" viewBox="0 0 600 600" fill="none" xmlns="http://www.w3.org/2000/svg">
<path d="M102.048 403.956L92.4601 419.412L97.2001 422.34C98.5921 423.204 99.3481 424.776 99.2041 426.408C99.1321 427.308 99.0961 428.22 99.1201 429.132C99.1561 430.764 98.3041 432.288 96.8641 433.056L91.9561 435.684L100.56 451.716L105.468 449.088C106.908 448.32 108.648 448.452 109.992 449.376C110.736 449.892 111.516 450.372 112.308 450.804C113.748 451.596 114.636 453.096 114.588 454.728L114.408 460.296L132.588 460.86L132.756 455.268C132.804 453.624 133.812 452.208 135.288 451.5C135.696 451.308 136.092 451.104 136.488 450.9C136.884 450.684 137.268 450.468 137.652 450.24C139.044 449.4 140.784 449.352 142.164 450.204L146.928 453.156L156.516 437.7L151.776 434.76C150.384 433.896 149.628 432.324 149.772 430.692C149.844 429.792 149.88 428.892 149.856 427.98C149.82 426.348 150.672 424.836 152.112 424.056L157.02 421.428L148.416 405.396L143.508 408.024C142.068 408.792 140.328 408.66 138.996 407.736C138.252 407.22 137.484 406.74 136.692 406.308C135.252 405.528 134.364 404.028 134.412 402.384L134.58 396.804L116.4 396.24L116.232 401.82C116.184 403.452 115.176 404.868 113.7 405.576C113.292 405.768 112.896 405.972 112.5 406.188C112.104 406.404 111.72 406.62 111.336 406.848C109.932 407.7 108.192 407.748 106.8 406.884L102.06 403.944L102.048 403.956ZM117.444 415.44C124.692 411.552 133.716 414.276 137.604 421.524C141.492 428.772 138.78 437.808 131.52 441.696C124.272 445.584 115.224 442.86 111.336 435.6C107.448 428.352 110.184 419.316 117.432 415.428L117.444 415.44Z" fill="#EBEBEB"/>
<path d="M413.748 44.8801L400.896 65.9281L400.836 65.6881L407.616 69.8401C408.744 70.6321 409.572 71.8201 409.944 73.1521C410.268 74.2921 410.148 75.9841 410.112 77.1721L410.064 79.1401C410.1 81.2281 408.996 83.2921 407.208 84.4081L400.224 88.2001L400.356 87.7561L412.068 109.464L411.54 109.308L418.548 105.54C420.492 104.64 422.856 104.856 424.62 106.056L426.3 107.088L427.98 108.12C429.84 109.164 431.1 111.192 431.172 113.34L430.956 121.296L430.5 120.816L455.148 121.524L454.608 122.028L454.848 114.06C455.028 111.876 456.456 109.908 458.4 108.948L460.152 108.06L461.856 107.088C463.74 105.984 466.176 105.888 468.108 106.944L474.9 111.108L474.072 111.3L487.116 90.3721L487.296 91.1161L480.552 86.8921C478.776 85.6441 477.768 83.4361 477.924 81.2881C477.948 80.3041 478.044 78.3361 478.068 77.3521C478.056 75.1921 479.196 73.0681 481.044 71.9401L488.064 68.1841L487.872 68.8201L476.268 47.0521L476.82 47.2201L469.788 50.9521C468.504 51.5401 467.016 51.6481 465.66 51.2881C464.496 50.9761 463.104 50.0281 462.084 49.3801L460.404 48.3361C458.568 47.2921 457.332 45.2761 457.284 43.1641L457.536 35.2201L457.86 35.5561L433.212 34.6801L433.44 34.4641L433.128 42.3961C432.948 45.3001 430.404 47.0401 427.98 48.0361C425.808 49.4761 422.952 50.5681 420.492 49.1161L413.772 44.9041L413.748 44.8801ZM413.748 44.8801L420.516 48.9961C423 50.4001 425.676 49.2841 427.848 47.8201C430.236 46.7881 432.612 45.1561 432.768 42.3481L432.972 34.4401V34.2241H433.2L457.848 34.8841H458.172V35.2201L457.956 43.1281C458.004 45.0001 459.12 46.7761 460.74 47.6881L462.444 48.7321L464.148 49.7761C465.696 50.8201 467.76 51.0121 469.452 50.2201L476.412 46.4761L476.772 46.2841L476.964 46.6441L488.676 68.3521L488.892 68.7601L488.484 68.9881L481.536 72.7441C479.976 73.7041 479.028 75.5041 479.052 77.3281L478.992 79.3321L478.932 81.3241C478.812 83.1361 479.664 84.9841 481.152 86.0161L487.86 90.1801L488.316 90.4681L488.028 90.9241L475.08 111.912L474.768 112.416L474.264 112.104L467.556 107.94C465.984 107.064 463.968 107.148 462.42 108.048L460.68 109.032L458.892 109.932C457.272 110.724 456.072 112.356 455.916 114.156L455.652 122.052V122.58H455.112L430.464 121.74H429.996V121.26L430.272 113.364C430.224 111.516 429.144 109.764 427.536 108.864L425.844 107.808L424.152 106.752C422.628 105.708 420.564 105.504 418.884 106.284L411.9 109.992L411.552 110.172L411.372 109.824L399.768 88.0561L399.612 87.7681L399.9 87.6121L406.872 83.8801C408.492 82.8961 409.476 81.0361 409.476 79.1521C409.524 78.1561 409.572 76.1641 409.632 75.1681C409.776 73.2721 408.912 71.3281 407.352 70.2121L400.656 65.9881L400.512 65.8921L400.596 65.7481L413.736 44.8801H413.748Z" fill="#EBEBEB"/>
<path d="M434.616 60.4443C450.528 51.8883 468.996 66.8523 463.98 84.2403C460.968 95.0763 448.848 101.568 438.168 98.0763C420.888 92.6283 418.692 68.9643 434.616 60.4563V60.4443ZM434.616 60.4443C418.98 68.9763 421.404 92.0643 438.456 97.0803C448.5 100.248 460.08 94.0563 462.996 83.9403C468.252 66.9723 450.372 52.1283 434.616 60.4443Z" fill="#EBEBEB"/>
<path d="M521.041 109.356L510 115.728L511.956 119.112C512.532 120.108 512.472 121.332 511.848 122.292C511.5 122.82 511.188 123.372 510.9 123.948C510.384 124.968 509.353 125.628 508.213 125.628H504.312V138.372H508.213C509.353 138.372 510.384 139.032 510.9 140.052C511.188 140.616 511.512 141.168 511.848 141.708C512.472 142.668 512.532 143.892 511.956 144.888L510 148.26L521.041 154.632L522.996 151.236C523.572 150.24 524.665 149.688 525.805 149.748C526.117 149.76 526.429 149.772 526.741 149.772C527.053 149.772 527.365 149.772 527.677 149.748C528.817 149.688 529.908 150.228 530.472 151.224L532.441 154.632L543.48 148.26L541.524 144.876C540.948 143.88 541.008 142.656 541.632 141.696C541.98 141.168 542.292 140.616 542.58 140.052C543.096 139.032 544.129 138.384 545.269 138.384H549.169V125.64H545.269C544.129 125.64 543.096 124.98 542.58 123.972C542.292 123.408 541.968 122.856 541.632 122.328C541.008 121.368 540.948 120.144 541.524 119.148L543.48 115.764L532.441 109.392L530.484 112.776C529.908 113.772 528.829 114.312 527.677 114.252C527.365 114.24 527.052 114.228 526.728 114.228C526.404 114.228 526.104 114.228 525.792 114.252C524.64 114.312 523.548 113.76 522.984 112.764L521.028 109.38L521.041 109.356ZM526.741 121.536C532.501 121.536 537.169 126.204 537.169 131.964C537.169 137.724 532.501 142.404 526.741 142.404C520.981 142.404 516.3 137.724 516.3 131.964C516.3 126.204 520.981 121.536 526.741 121.536Z" fill="#EBEBEB"/>
<path d="M338.748 472.44L345.12 483.48L348.492 481.524C349.488 480.948 350.712 481.008 351.672 481.632C352.2 481.98 352.752 482.292 353.328 482.58C354.348 483.096 355.008 484.128 355.008 485.268V489.168H367.752V485.268C367.752 484.128 368.412 483.096 369.432 482.58C369.996 482.292 370.548 481.968 371.088 481.632C372.048 481.008 373.272 480.948 374.268 481.524L377.652 483.48L384.024 472.44L380.628 470.484C379.632 469.908 379.08 468.816 379.14 467.676C379.152 467.364 379.164 467.052 379.164 466.74C379.164 466.428 379.164 466.116 379.14 465.804C379.08 464.664 379.62 463.572 380.616 463.008L384.024 461.04L377.652 450L374.268 451.956C373.272 452.532 372.048 452.472 371.088 451.848C370.56 451.5 370.008 451.188 369.444 450.9C368.424 450.384 367.776 449.352 367.776 448.212V444.312H355.032V448.212C355.032 449.352 354.372 450.384 353.364 450.9C352.8 451.188 352.248 451.512 351.72 451.848C350.76 452.472 349.536 452.532 348.54 451.956L345.156 450L338.784 461.04L342.168 462.996C343.164 463.572 343.704 464.652 343.644 465.804C343.632 466.116 343.62 466.428 343.62 466.752C343.62 467.076 343.62 467.376 343.644 467.688C343.704 468.84 343.152 469.932 342.156 470.496L338.772 472.452L338.748 472.44ZM350.928 466.74C350.928 460.98 355.596 456.312 361.356 456.312C367.116 456.312 371.796 460.98 371.796 466.74C371.796 472.5 367.116 477.18 361.356 477.18C355.596 477.18 350.928 472.5 350.928 466.74Z" fill="#EBEBEB"/>
<path d="M50.8081 171.048L57.3361 181.992L57.0841 181.932L60.6241 179.832C61.6081 179.316 62.8561 179.388 63.8041 179.976C64.2481 180.216 65.1361 180.732 65.5801 180.972C66.5881 181.488 67.2961 182.532 67.3681 183.672L67.4041 187.788L67.0561 187.44L79.8001 187.344L79.3561 187.788L79.3321 183.66C79.3921 181.98 80.6641 180.972 82.0561 180.276C83.3401 179.4 84.8641 178.8 86.3641 179.58L89.9521 181.632L89.2321 181.824L95.5681 170.772L95.7721 171.54L92.1841 169.476C90.7681 168.588 90.4561 166.896 90.6121 165.348C90.4441 163.8 90.7561 162.096 92.1721 161.208L95.7481 159.12L95.5321 159.936L89.1841 148.884L89.9641 149.088L86.3761 151.14C85.6441 151.5 84.7921 151.596 84.0121 151.416C83.0281 151.176 82.0441 150.408 81.1561 149.94C80.0881 149.376 79.3441 148.248 79.2721 147.024V142.896L79.8001 143.424L67.0561 143.376L67.5361 142.896L67.5001 147.024C67.4401 147.804 67.1041 148.56 66.5641 149.124C65.8681 149.832 64.7281 150.3 63.8761 150.828C62.8921 151.44 61.5961 151.512 60.5521 150.984L56.9881 148.908L57.4681 148.776L50.9881 159.756L50.9041 159.444L54.4321 161.544C55.7281 162.348 55.9081 163.992 55.7641 165.336C55.8841 166.668 55.6681 168.288 54.3721 169.044L50.7961 171.036L50.8081 171.048ZM50.8081 171.048L54.3121 168.936C55.5361 168.132 55.6561 166.692 55.5241 165.336C55.6201 164.004 55.4761 162.576 54.2521 161.832L50.6881 159.828L50.4961 159.72L50.6041 159.516L56.8681 148.416L57.0361 148.116L57.3481 148.296L60.9001 150.3C61.7041 150.696 62.7001 150.624 63.4561 150.144C64.7281 149.34 66.5521 148.74 66.6121 146.964L66.5881 142.896V142.428H67.0681L79.8121 142.368H80.3401C80.3401 142.572 80.3401 146.616 80.3641 146.964C80.4121 148.284 81.5521 148.968 82.5961 149.496C83.5681 150.132 84.7561 150.768 85.8961 150.144C86.0281 150.072 89.8681 147.84 89.9041 147.828L90.1921 148.32L96.5881 159.348L96.8881 159.864C96.6601 159.996 93.1921 162 92.8441 162.192C91.7521 162.852 91.7041 164.208 91.7881 165.348L91.7641 166.392C91.7281 167.22 92.1361 168.072 92.8321 168.528L96.3481 170.568L96.8281 170.844L96.5521 171.324L90.1561 182.352L89.8921 182.808L89.4361 182.544L85.9201 180.504C84.7561 179.868 83.5681 180.504 82.5721 181.152C82.1161 181.428 81.3361 181.788 80.9881 182.184C80.5921 182.604 80.3401 183.156 80.3041 183.72L80.2681 187.788V188.232H79.8241L67.0801 188.136H66.7321V187.788L66.7561 183.708C66.7081 182.784 66.1441 181.92 65.3281 181.488C64.8841 181.224 63.9841 180.696 63.5521 180.432C62.7601 179.916 61.7161 179.832 60.8521 180.252L57.2881 182.244L57.1321 182.328L57.0481 182.172L50.8321 171.048H50.8081Z" fill="#EBEBEB"/>
<path d="M62.9996 165.336C62.9036 156.012 74.4596 151.044 81.1796 157.596C85.5236 161.592 85.5236 169.092 81.1796 173.088C74.4476 179.64 62.9036 174.66 62.9996 165.336ZM62.9996 165.336C62.9276 174.396 74.2916 178.92 80.4476 172.356C84.1916 168.6 84.2036 162.084 80.4476 158.328C74.2916 151.764 62.9156 156.276 62.9876 165.336H62.9996Z" fill="#EBEBEB"/>
<path d="M108.144 65.0521C110.064 78.8761 123.816 83.5321 125.28 83.9401C126.756 84.3361 128.16 85.4641 127.248 87.1441C118.272 103.62 69.7315 175.38 67.9435 178.464C66.1435 181.548 60.3115 196.428 60.3115 196.428C60.3115 196.428 64.7515 192.168 71.4595 185.436C78.1675 178.704 109.092 137.016 109.092 137.016L107.772 129.228C107.772 129.228 140.448 86.3521 146.508 78.2281C152.568 70.0921 161.268 58.9321 159.036 45.5041C156.816 32.0641 143.568 24.9721 131.76 29.0641C119.952 33.1681 106.056 49.8721 108.144 65.0521ZM149.664 35.4361C160.488 44.6641 152.052 61.7761 147 67.3921C141.948 73.0081 128.388 84.0481 117.648 72.9121C111.54 66.5761 111.588 54.4201 118.86 44.7721C125.736 35.6521 138.84 26.2201 149.664 35.4481V35.4361Z" fill="#A6A6A6"/>
<path d="M100.164 129.84C84.8875 153.072 68.9515 176.712 67.9435 178.464C66.1435 181.548 60.3115 196.428 60.3115 196.428C60.3115 196.428 64.7515 192.168 71.4595 185.436C78.1675 178.704 109.092 137.016 109.092 137.016L107.772 129.228C107.772 129.228 107.856 129.12 108.012 128.916C105.564 129.216 102.6 129.564 100.176 129.852L100.164 129.84Z" fill="#A6A6A6"/>
<path d="M201.312 81.3842C201.972 68.9042 191.484 58.1402 177.96 59.7362C164.436 61.3202 156.132 72.7682 150 80.8442C143.868 88.9202 111.744 132.216 111.744 132.216L103.896 133.104C103.896 133.104 72.4197 174.384 67.8117 182.688C63.2037 190.992 60.3477 196.44 60.3477 196.44C60.3477 196.44 73.0197 186.708 75.4917 184.128C77.9637 181.548 133.44 115.008 146.784 101.82C148.14 100.476 149.616 101.52 150.408 102.828C151.212 104.124 159.492 116.052 173.304 114.06C188.472 111.864 200.664 93.8762 201.336 81.3962L201.312 81.3842ZM189.804 98.1242C182.544 107.796 170.88 111.204 163.104 107.088C149.436 99.8642 156.276 83.7722 160.272 77.3642C164.268 70.9562 178.368 58.0922 190.236 65.9402C202.104 73.7882 196.668 88.9922 189.816 98.1242H189.804Z" fill="#C7C7C7"/>
<path d="M113.243 139.68C95.1592 160.8 76.8592 182.664 75.4672 184.128C72.9952 186.708 60.3232 196.44 60.3232 196.44C60.3232 196.44 63.1912 190.992 67.7872 182.688C72.3952 174.384 103.871 133.104 103.871 133.104L111.719 132.216C111.719 132.216 111.803 132.108 111.959 131.892C112.355 134.328 112.835 137.28 113.243 139.68Z" fill="#C7C7C7"/>
<path d="M99.2753 150.372C98.8673 151.404 97.7033 151.92 96.6593 151.512C95.6153 151.104 95.1113 149.94 95.5193 148.896C95.9273 147.864 97.0913 147.348 98.1353 147.756C99.1673 148.164 99.6833 149.328 99.2753 150.372Z" fill="#263238"/>
<path d="M491.76 561.156L521.124 566.64L521.232 566.1L492.156 559.26L491.76 561.156Z" fill="#263238"/>
<path d="M320.76 537.336L431.952 560.76C434.22 561.24 436.44 559.788 436.92 557.52L437.58 554.4C437.748 553.632 438.504 553.14 439.26 553.308L441.156 553.704L442.848 545.676L440.952 545.28C440.184 545.124 439.692 544.368 439.86 543.6L440.52 540.48C441 538.212 439.548 535.992 437.28 535.512L326.088 512.088L320.772 537.336H320.76Z" fill="white"/>
<path d="M320.76 537.336C350.664 543.516 402.624 554.376 431.988 560.508C433.836 560.928 435.876 559.824 436.488 558.024C437.196 556.452 436.656 552.744 439.236 553.032L441.192 553.44L440.868 553.656L442.548 545.628L442.764 545.964L440.808 545.556C440.016 545.376 439.44 544.572 439.524 543.756C439.752 542.424 440.124 541.14 440.28 539.856C440.424 537.984 439.032 536.16 437.184 535.8C426.096 533.448 399.816 527.868 388.44 525.456C388.596 525.396 325.5 512.268 326.172 512.112L320.748 537.336H320.76ZM320.76 537.336C320.784 537.228 325.98 512.052 326.004 511.956C325.956 511.92 388.548 525.024 388.548 525.012C398.928 527.184 425.352 532.716 435.372 534.804L437.328 535.212C439.452 535.62 441.072 537.708 440.892 539.868C440.736 541.212 440.34 542.496 440.124 543.78C440.064 544.308 440.448 544.848 440.976 544.968L442.92 545.376L443.196 545.436L443.136 545.712L441.432 553.74L441.372 554.004L441.108 553.944L439.164 553.536C438.636 553.428 438.06 553.776 437.892 554.292C437.568 555.552 437.412 556.896 437.004 558.18C436.296 560.22 433.992 561.468 431.892 560.976L429.936 560.556L414.312 557.244C394.404 553.032 341.316 541.692 320.772 537.3L320.76 537.336Z" fill="#263238"/>
<path d="M353.616 541.056L430.416 557.232C432.24 557.616 434.052 556.44 434.436 554.616L437.064 542.136C437.448 540.312 436.272 538.5 434.448 538.116L357.648 521.94L353.616 541.056Z" fill="#BA68C8"/>
<path d="M454.194 564.313L459.054 541.251L444.388 538.161L439.528 561.222L454.194 564.313Z" fill="#C7C7C7"/>
<path d="M314.628 566.336L332.159 483.143L319.078 480.387L301.547 563.579L314.628 566.336Z" fill="#C7C7C7"/>
<path d="M310.316 521.976L311.93 514.32L237.379 498.61L235.766 506.266L310.316 521.976Z" fill="#DBDBDB"/>
<path d="M308.691 529.622L310.305 521.966L235.754 506.256L234.141 513.911L308.691 529.622Z" fill="#DBDBDB"/>
<path d="M235.476 507.72L235.776 506.292L310.32 522L309.696 524.952L235.476 507.72Z" fill="#C7C7C7"/>
<path d="M471.936 562.248L474.473 550.212L457.905 546.721L455.368 558.757L471.936 562.248Z" fill="#263238"/>
<path d="M471.948 562.284L472.344 562.368C473.196 562.548 474.084 562.32 474.744 561.756C475.344 561.24 476.148 560.988 476.94 561.084L489.312 562.56C490.044 562.644 490.752 562.452 491.316 562.044C491.88 561.648 492.288 561.036 492.444 560.316C492.6 559.596 492.456 558.864 492.108 558.276C491.76 557.676 491.196 557.22 490.488 557.004L478.572 553.356C477.816 553.116 477.18 552.576 476.832 551.856C476.448 551.076 475.74 550.5 474.888 550.32L474.492 550.236L471.96 562.272L471.948 562.284Z" fill="#455A64"/>
<path d="M231.811 525.038L239.722 487.499L235.999 486.714L228.089 524.254L231.811 525.038Z" fill="#C7C7C7"/>
<g opacity="0.3">
<path d="M372.912 528.792C391.752 531.084 410.388 534.996 428.556 540.516C409.716 538.236 391.08 534.3 372.912 528.792Z" fill="white"/>
</g>
<path d="M436.692 87.6479H155.652V460.944H436.692V87.6479Z" fill="#37474F"/>
<path d="M444.336 87.6479H163.296V460.944H444.336V87.6479Z" fill="#455A64"/>
<path d="M424.545 102.543L176.465 105.704L180.75 442.001L428.83 438.84L424.545 102.543Z" fill="#EBEBEB"/>
<path d="M178.468 101.477L171.189 437.722L419.231 443.091L426.51 106.846L178.468 101.477Z" fill="#DBDBDB"/>
<path d="M422.869 104.112H174.769V440.436H422.869V104.112Z" fill="white"/>
<path d="M422.88 440.436C422.652 440.496 174.72 440.664 174.504 440.712C174.504 440.508 174.336 104.352 174.324 104.112V103.668H174.768C175.032 103.584 422.94 103.86 423.192 103.8C423.372 104.04 422.748 440.16 422.868 440.448L422.88 440.436ZM422.88 440.436L422.556 104.112C424.74 104.748 174.216 104.46 174.78 104.556L175.224 104.112L175.056 440.436C173.22 440.04 423.348 440.424 422.88 440.436Z" fill="#DBDBDB"/>
<path d="M392.352 163.764C360.672 164.556 325.608 164.556 293.916 163.764C325.608 162.972 360.672 162.972 392.352 163.764Z" fill="#C7C7C7"/>
<path d="M392.352 178.14C360.672 178.932 325.608 178.932 293.916 178.14C325.608 177.348 360.672 177.348 392.352 178.14Z" fill="#C7C7C7"/>
<path d="M392.352 192.504C360.672 193.296 325.608 193.296 293.916 192.504C325.608 191.712 360.672 191.712 392.352 192.504Z" fill="#C7C7C7"/>
<path d="M392.352 206.868C360.672 207.66 325.608 207.66 293.916 206.868C325.608 206.076 360.672 206.076 392.352 206.868Z" fill="#C7C7C7"/>
<path d="M392.352 221.232C360.672 222.024 325.608 222.024 293.916 221.232C325.608 220.44 360.672 220.44 392.352 221.232Z" fill="#C7C7C7"/>
<path d="M392.352 235.596C360.672 236.388 325.608 236.388 293.916 235.596C325.608 234.804 360.672 234.804 392.352 235.596Z" fill="#C7C7C7"/>
<path d="M392.352 249.96C360.672 250.752 325.608 250.752 293.916 249.96C325.608 249.168 360.672 249.168 392.352 249.96Z" fill="#C7C7C7"/>
<path d="M392.352 264.324C360.672 265.116 325.608 265.116 293.916 264.324C325.608 263.532 360.672 263.532 392.352 264.324Z" fill="#C7C7C7"/>
<path d="M392.352 278.688C332.736 279.468 265.848 279.48 206.244 278.688C265.86 277.896 332.748 277.908 392.352 278.688Z" fill="#C7C7C7"/>
<path d="M392.352 293.052C332.736 293.832 265.848 293.844 206.244 293.052C265.86 292.26 332.748 292.272 392.352 293.052Z" fill="#C7C7C7"/>
<path d="M392.352 278.688C332.736 279.468 265.848 279.48 206.244 278.688C265.86 277.896 332.748 277.908 392.352 278.688Z" fill="#C7C7C7"/>
<path d="M324.792 307.416C286.704 308.208 244.356 308.196 206.244 307.416C244.368 306.636 286.704 306.624 324.792 307.416Z" fill="#C7C7C7"/>
<path d="M206.244 350.364C265.86 349.584 332.748 349.572 392.352 350.364C332.736 351.156 265.848 351.144 206.244 350.364Z" fill="#C7C7C7"/>
<path d="M206.244 364.728C243.96 363.936 285.912 363.948 323.652 364.728C285.9 365.508 243.972 365.52 206.244 364.728Z" fill="#C7C7C7"/>
<path d="M358.009 389.844C320.293 390.636 278.341 390.624 240.601 389.844C278.353 389.064 320.281 389.052 358.009 389.844Z" fill="#C7C7C7"/>
<path d="M392.352 407.976C332.736 408.756 265.848 408.768 206.244 407.976C265.86 407.184 332.748 407.196 392.352 407.976Z" fill="#C7C7C7"/>
<path d="M342.732 144.528C313.812 146.172 284.796 146.184 255.876 144.528C284.796 142.872 313.812 142.884 342.732 144.528Z" fill="#C7C7C7"/>
<path d="M344.004 83.1719H255.984V116.352H344.004V83.1719Z" fill="#C7C7C7"/>
<path d="M326.916 68.4961H272.292L269.868 83.1721H330.144L326.916 68.4961ZM300 79.0561C298.224 79.0561 296.784 77.6161 296.784 75.8401C296.784 74.0641 298.224 72.6241 300 72.6241C301.776 72.6241 303.216 74.0641 303.216 75.8401C303.216 77.6161 301.776 79.0561 300 79.0561Z" fill="#C7C7C7"/>
<path d="M330.144 83.1723H269.868L270.408 79.8843H329.412L330.144 83.1723Z" fill="#A6A6A6"/>
<path d="M529.884 338.52H378.264V490.14H529.884V338.52Z" fill="#EBEBEB"/>
<path d="M427.56 499.416C427.56 499.416 424.333 487.62 426.757 477.624C426.757 477.624 459.817 480.78 466.201 478.308C473.689 475.404 482.905 464.34 479.761 455.88C476.617 447.42 464.532 433.884 459.696 426.876C454.86 419.868 441.085 397.152 431.665 388.452C422.245 379.752 408.456 365.736 405.324 355.104C402.18 344.472 400.729 329.244 400.729 329.244" stroke="#BA68C8" stroke-miterlimit="10"/>
<path d="M368.916 329.232V499.416H427.56C427.56 499.416 424.332 487.62 426.756 477.624C426.756 477.624 452.268 477.048 461.748 471.468C468.672 467.388 466.896 450.66 460.776 444.024C443.052 424.836 411.492 376.992 405.336 355.08C402.336 344.4 400.74 329.22 400.74 329.22H368.916V329.232Z" fill="#F7A9A0"/>
<path opacity="0.2" d="M412.584 474.24C412.584 474.24 438.828 461.808 442.8 468.924C446.304 475.212 412.584 474.24 412.584 474.24Z" fill="#020100"/>
<g opacity="0.1">
<path d="M394.344 444.036C391.908 451.128 388.752 458.508 388.56 465.972C388.68 473.652 397.32 477.54 403.536 480.408C396.084 479.256 386.256 474.804 386.16 466.008C386.484 457.896 390.048 450.636 394.344 444.036Z" fill="#020100"/>
</g>
<path d="M445.104 385.212L456.852 373.464" stroke="#BA68C8" stroke-width="4" stroke-miterlimit="10"/>
<path d="M449.472 387.612L440.232 390.084L442.704 380.844L449.472 387.612Z" fill="#BA68C8"/>
<path d="M456.145 396.252L467.893 384.504" stroke="#BA68C8" stroke-width="4" stroke-miterlimit="10"/>
<path d="M460.512 398.652L451.272 401.124L453.744 391.884L460.512 398.652Z" fill="#BA68C8"/>
<path d="M467.185 407.292L478.933 395.544" stroke="#BA68C8" stroke-width="4" stroke-miterlimit="10"/>
<path d="M471.564 409.692L462.312 412.164L464.784 402.924L471.564 409.692Z" fill="#BA68C8"/>
<path d="M489.264 470.52L501.012 482.268" stroke="#BA68C8" stroke-width="4" stroke-miterlimit="10"/>
<path d="M486.876 474.888L484.392 465.648L493.644 468.12L486.876 474.888Z" fill="#BA68C8"/>
<path d="M478.224 481.56L489.972 493.308" stroke="#BA68C8" stroke-width="4" stroke-miterlimit="10"/>
<path d="M475.824 485.928L473.352 476.688L482.604 479.16L475.824 485.928Z" fill="#BA68C8"/>
<path d="M539.22 495.876V499.476H535.62" stroke="#263238" stroke-miterlimit="10"/>
<path d="M528.528 499.476H376.068" stroke="#263238" stroke-miterlimit="10"/>
<path d="M372.516 499.476H368.916V495.876" stroke="#263238" stroke-miterlimit="10"/>
<path d="M368.916 488.784V336.312" stroke="#263238" stroke-miterlimit="10"/>
<path d="M368.916 332.772V329.172H372.516" stroke="#263238" stroke-miterlimit="10"/>
<path d="M379.608 329.172H532.068" stroke="#263238" stroke-miterlimit="10"/>
<path d="M535.62 329.172H539.22V332.772" stroke="#263238" stroke-miterlimit="10"/>
<path d="M539.22 339.864V492.324" stroke="#263238" stroke-miterlimit="10"/>
<path d="M466.044 359.712H461.784L460.92 361.992C460.764 362.376 460.392 362.604 460.008 362.604C459.888 362.604 459.78 362.592 459.672 362.556C459.168 362.364 458.916 361.8 459.096 361.296L462.972 350.976C463.128 350.592 463.512 350.34 463.896 350.364C464.304 350.352 464.664 350.592 464.82 350.976L468.696 361.296C468.876 361.8 468.624 362.364 468.12 362.556C468.036 362.592 467.904 362.604 467.784 362.604C467.4 362.604 467.028 362.376 466.884 361.992L466.02 359.712H466.044ZM465.324 357.78L463.908 354.012L462.492 357.78H465.336H465.324Z" fill="#263238"/>
<path d="M472.68 361.644V351.3C472.68 350.772 473.1 350.34 473.64 350.34H479.364C479.868 350.34 480.324 350.784 480.324 351.3C480.324 351.816 479.868 352.284 479.364 352.284H474.612V355.488H478.692C479.22 355.488 479.652 355.944 479.652 356.448C479.652 356.988 479.22 357.432 478.692 357.432H474.612V361.632C474.612 362.16 474.168 362.592 473.628 362.592C473.088 362.592 472.668 362.148 472.668 361.632L472.68 361.644Z" fill="#263238"/>
<path d="M492.36 352.284H489.576V361.644C489.576 362.184 489.156 362.604 488.616 362.604C488.076 362.604 487.656 362.184 487.656 361.644V352.284H484.884C484.344 352.284 483.924 351.828 483.924 351.3C483.924 350.772 484.344 350.34 484.884 350.34H492.372C492.9 350.34 493.332 350.76 493.332 351.3C493.332 351.84 492.9 352.284 492.372 352.284H492.36Z" fill="#263238"/>
<path d="M497.796 361.644V351.3C497.796 350.76 498.216 350.34 498.756 350.34H504.48C504.984 350.34 505.44 350.76 505.44 351.3C505.44 351.84 504.984 352.284 504.48 352.284H499.728V355.488H503.808C504.336 355.488 504.768 355.944 504.768 356.448C504.768 356.988 504.336 357.432 503.808 357.432H499.728V360.66H504.48C504.984 360.66 505.44 361.104 505.44 361.644C505.44 362.184 504.984 362.604 504.48 362.604H498.804L498.768 362.592H498.756C498.216 362.604 497.796 362.172 497.796 361.644Z" fill="#263238"/>
<path d="M518.232 361.152C518.412 361.656 518.124 362.208 517.62 362.376C517.548 362.388 517.416 362.424 517.236 362.424H517.224C517.044 362.424 516.78 362.388 516.54 362.232C516.312 362.088 516.12 361.86 515.976 361.62C515.736 361.116 515.604 360.48 515.604 359.52C515.592 359.184 515.52 358.956 515.4 358.764C515.292 358.572 515.088 358.392 514.872 358.26C514.5 358.02 514.044 357.876 513.888 357.84H511.824V361.644C511.824 362.172 511.38 362.604 510.84 362.604C510.3 362.604 509.88 362.16 509.88 361.644V351.3C509.88 350.76 510.3 350.34 510.84 350.34H513.972C516.06 350.34 517.716 352.02 517.716 354.108C517.716 355.26 517.188 356.28 516.348 356.976C516.576 357.156 516.792 357.36 516.96 357.624C517.308 358.128 517.536 358.776 517.536 359.52C517.524 360.048 517.572 360.384 517.608 360.552C517.884 360.636 518.112 360.852 518.22 361.152H518.232ZM515.784 354.108C515.784 353.088 514.98 352.284 513.984 352.284H511.824V355.896H513.984C514.98 355.896 515.784 355.092 515.784 354.108Z" fill="#263238"/>
<path d="M529.885 134.064H378.265V285.684H529.885V134.064Z" fill="#EBEBEB"/>
<path d="M368.916 124.776V294.972H427.56C427.56 294.972 424.332 283.176 426.756 273.18C426.756 273.18 459.816 276.336 466.2 273.864C473.688 270.96 482.904 259.896 479.76 251.436C476.616 242.976 464.532 229.44 459.696 222.432C454.86 215.424 441.084 192.708 431.664 184.008C422.244 175.308 408.456 161.292 405.324 150.66C402.18 140.028 400.728 124.8 400.728 124.8H368.904L368.916 124.776Z" fill="#F7A9A0"/>
<path opacity="0.2" d="M412.584 269.796C412.584 269.796 438.828 257.364 442.8 264.48C446.304 270.768 412.584 269.796 412.584 269.796Z" fill="#020100"/>
<g opacity="0.1">
<path d="M394.344 239.58C391.908 246.672 388.752 254.052 388.56 261.516C388.68 269.196 397.32 273.084 403.536 275.952C396.084 274.8 386.256 270.348 386.16 261.552C386.484 253.44 390.048 246.18 394.344 239.58Z" fill="#020100"/>
</g>
<path d="M426.756 273.18C426.756 273.18 427.644 273.216 429.156 273.24" stroke="#BA68C8" stroke-miterlimit="10"/>
<path d="M433.872 273.228C442.14 273.108 455.472 272.292 461.748 268.596C468.672 264.516 466.896 247.788 460.776 241.152C443.052 221.964 408.468 161.268 405.336 150.636C403.296 143.712 401.964 134.856 401.28 129.504" stroke="#BA68C8" stroke-miterlimit="10"/>
<path d="M400.992 127.164C400.824 125.664 400.74 124.776 400.74 124.776" stroke="#BA68C8" stroke-miterlimit="10"/>
<path d="M539.22 291.42V295.02H535.62" stroke="#263238" stroke-miterlimit="10"/>
<path d="M528.528 295.02H376.068" stroke="#263238" stroke-miterlimit="10"/>
<path d="M372.516 295.02H368.916V291.42" stroke="#263238" stroke-miterlimit="10"/>
<path d="M368.916 284.328V131.868" stroke="#263238" stroke-miterlimit="10"/>
<path d="M368.916 128.316V124.716H372.516" stroke="#263238" stroke-miterlimit="10"/>
<path d="M379.608 124.716H532.068" stroke="#263238" stroke-miterlimit="10"/>
<path d="M535.62 124.716H539.22V128.316" stroke="#263238" stroke-miterlimit="10"/>
<path d="M539.22 135.408V287.88" stroke="#263238" stroke-miterlimit="10"/>
<path d="M445.896 157.2V146.856C445.896 146.316 446.341 145.896 446.857 145.896H449.341C451.177 145.896 452.665 147.384 452.665 149.22C452.665 149.976 452.425 150.66 452.005 151.212C453.061 151.884 453.769 153.048 453.769 154.38C453.769 156.468 452.088 158.148 450.024 158.148H446.929L446.916 158.136C446.88 158.136 446.881 158.148 446.869 158.148C446.341 158.148 445.908 157.704 445.908 157.188L445.896 157.2ZM447.841 150.648H449.352C450.12 150.648 450.732 150 450.732 149.232C450.732 148.464 450.12 147.852 449.352 147.852H447.841V150.66V150.648ZM447.841 156.216H450.036C451.032 156.204 451.836 155.412 451.836 154.392C451.836 153.372 451.032 152.604 450.036 152.592H447.841V156.216Z" fill="#263238"/>
<path d="M457.872 157.2V146.856C457.872 146.316 458.292 145.896 458.832 145.896H464.556C465.06 145.896 465.516 146.316 465.516 146.856C465.516 147.396 465.06 147.84 464.556 147.84H459.804V151.044H463.884C464.412 151.044 464.844 151.5 464.844 152.004C464.844 152.544 464.412 152.988 463.884 152.988H459.804V156.216H464.556C465.06 156.216 465.516 156.66 465.516 157.2C465.516 157.74 465.06 158.16 464.556 158.16H458.88L458.844 158.148H458.832C458.292 158.16 457.872 157.728 457.872 157.2Z" fill="#263238"/>
<path d="M469.849 157.2V146.856C469.849 146.328 470.269 145.896 470.809 145.896H476.533C477.037 145.896 477.493 146.328 477.493 146.856C477.493 147.384 477.037 147.84 476.533 147.84H471.781V151.044H475.861C476.389 151.044 476.821 151.5 476.821 152.004C476.821 152.544 476.389 152.988 475.861 152.988H471.781V157.188C471.781 157.716 471.337 158.148 470.797 158.148C470.257 158.148 469.837 157.704 469.837 157.188L469.849 157.2Z" fill="#263238"/>
<path d="M491.353 147.42C492.445 148.572 493.129 150.12 493.129 151.848C493.129 153.576 492.445 155.148 491.353 156.276C490.321 157.416 488.773 158.148 487.165 158.148C485.557 158.148 483.937 157.416 482.869 156.276C481.777 155.136 481.129 153.576 481.129 151.848C481.129 150.12 481.777 148.572 482.869 147.42C483.937 146.268 485.485 145.548 487.165 145.548C488.845 145.548 490.321 146.268 491.353 147.42ZM491.125 151.848C491.125 150.66 490.657 149.556 489.937 148.776C489.205 147.984 488.221 147.528 487.165 147.528C486.049 147.528 485.065 147.984 484.321 148.776C483.589 149.544 483.133 150.648 483.133 151.848C483.133 153.048 483.589 154.14 484.321 154.896C485.053 155.688 486.037 156.156 487.165 156.156C488.221 156.156 489.193 155.688 489.937 154.896C490.657 154.14 491.125 153.036 491.125 151.848Z" fill="#263238"/>
<path d="M506.256 156.708C506.436 157.212 506.148 157.764 505.644 157.932C505.572 157.944 505.44 157.98 505.26 157.98H505.248C505.068 157.98 504.804 157.944 504.564 157.788C504.336 157.644 504.144 157.416 504 157.176C503.76 156.672 503.628 156.036 503.628 155.076C503.616 154.74 503.544 154.512 503.424 154.32C503.316 154.128 503.112 153.948 502.896 153.816C502.524 153.576 502.068 153.432 501.912 153.396H499.848V157.2C499.848 157.728 499.404 158.16 498.864 158.16C498.324 158.16 497.904 157.716 497.904 157.2V146.856C497.904 146.316 498.324 145.896 498.864 145.896H501.996C504.084 145.896 505.74 147.576 505.74 149.664C505.74 150.816 505.212 151.836 504.372 152.532C504.6 152.712 504.816 152.916 504.984 153.18C505.332 153.684 505.56 154.332 505.56 155.076C505.548 155.604 505.596 155.94 505.632 156.108C505.908 156.192 506.136 156.408 506.244 156.708H506.256ZM503.808 149.664C503.808 148.644 503.004 147.84 502.008 147.84H499.848V151.452H502.008C503.004 151.452 503.808 150.648 503.808 149.664Z" fill="#263238"/>
<path d="M510.673 157.2V146.856C510.673 146.316 511.093 145.896 511.633 145.896H517.357C517.861 145.896 518.317 146.316 518.317 146.856C518.317 147.396 517.861 147.84 517.357 147.84H512.605V151.044H516.685C517.213 151.044 517.645 151.5 517.645 152.004C517.645 152.544 517.213 152.988 516.685 152.988H512.605V156.216H517.357C517.861 156.216 518.317 156.66 518.317 157.2C518.317 157.74 517.861 158.16 517.357 158.16H511.681L511.645 158.148H511.633C511.093 158.16 510.673 157.728 510.673 157.2Z" fill="#263238"/>
<path d="M60.3115 566.64C213.876 565.908 386.136 565.896 539.688 566.64C386.124 567.384 213.864 567.372 60.3115 566.64Z" fill="#263238"/>
<path d="M286.836 163.764H206.736V264.324H286.836V163.764Z" fill="#DBDBDB"/>
<path d="M277.237 199.572C279.529 198.648 281.305 196.668 281.065 193.98C280.825 191.196 278.533 189.396 275.857 189.228C275.833 189.228 275.833 189.264 275.857 189.264C278.269 189.684 280.429 191.436 280.621 194.004C280.789 196.2 279.589 197.724 277.909 198.708C279.073 197.292 279.805 195.504 279.553 193.656C279.277 191.616 277.789 189.828 275.809 189.336C276.433 187.092 276.313 184.476 274.813 182.58C273.553 180.996 271.417 180.18 269.473 180.732C269.641 178.428 268.417 176.064 266.305 175.02C264.325 174.036 261.913 174.348 260.173 175.632C260.173 172.14 256.465 169.776 253.261 171.288C253.057 170.04 252.037 169.08 250.813 168.756C249.397 168.372 247.945 168.9 246.709 169.632C245.809 168.696 244.477 168.168 243.169 168.444C241.417 168.804 240.325 170.376 240.373 172.08C238.045 171.864 235.501 171.948 233.569 173.376C231.973 174.552 230.953 176.604 231.457 178.56C227.257 178.728 224.149 182.484 224.797 186.66C223.141 187.2 221.941 188.676 221.581 190.392C221.221 192.12 221.461 193.344 221.629 193.908C220.177 194.508 219.301 196.044 219.433 197.616C219.553 199.164 220.477 200.28 221.653 201.144C221.797 201.516 221.869 201.888 221.845 202.368C221.725 204.552 222.589 206.556 224.317 207.9C223.345 210.288 224.893 213.156 227.413 213.684C227.209 216.3 229.381 218.736 231.997 218.844C232.057 220.908 232.993 222.888 234.613 224.196C235.861 225.204 237.673 225.78 239.101 224.976C239.245 226.224 240.649 226.932 241.861 226.848C241.933 226.848 242.017 226.848 242.089 226.824C242.473 226.776 242.845 226.68 243.217 226.572C243.745 226.416 244.369 226.08 244.933 226.116C245.509 226.152 245.977 226.632 246.457 226.896C246.805 227.088 247.177 227.244 247.549 227.352C248.281 227.568 249.037 227.64 249.793 227.58C251.893 227.412 253.897 226.212 254.941 224.34C254.977 224.28 255.013 224.208 255.049 224.148C255.313 224.292 255.577 224.388 255.841 224.472C256.393 224.628 256.969 224.652 257.533 224.568C258.253 224.472 258.961 224.208 259.621 223.836C260.005 223.632 260.365 223.392 260.689 223.128C261.217 222.72 261.649 222.24 262.093 221.76C262.501 221.304 262.885 220.932 263.509 220.764C263.881 220.668 264.277 220.656 264.649 220.56C265.921 220.236 266.665 219.216 267.289 218.136C267.721 218.352 268.153 218.508 268.573 218.616C273.121 219.768 276.841 214.992 275.605 210.384C277.801 209.664 279.541 207.768 279.865 205.452C280.189 203.16 279.085 200.88 277.225 199.584L277.237 199.572ZM221.269 194.88C221.005 195.276 220.801 195.72 220.669 196.176C220.381 197.136 220.381 198.18 220.681 199.128C220.813 199.56 221.017 199.944 221.245 200.328C221.281 200.376 221.293 200.424 221.329 200.472C220.729 199.848 220.237 199.152 220.021 198.24C219.625 196.572 220.309 195.024 221.689 194.064C221.725 194.184 221.761 194.256 221.761 194.256C221.761 194.256 221.413 194.664 221.269 194.88ZM243.253 168.756C244.525 168.516 245.545 169.044 246.325 169.872H246.313C245.641 169.536 244.885 169.344 244.081 169.404C242.533 169.512 241.141 170.604 240.745 172.104H240.625C240.817 170.496 241.441 169.104 243.265 168.756H243.253ZM268.789 218.28C268.357 218.208 267.901 218.088 267.433 217.92C267.433 217.908 267.445 217.884 267.457 217.872C267.961 217.968 268.453 218.004 268.945 217.992C272.053 217.908 274.681 215.7 275.353 212.724C274.825 216.18 272.557 218.94 268.789 218.28Z" fill="#263238"/>
<path d="M268.92 264.324H223.2C228.228 249.228 233.904 235.776 239.124 231.348C239.184 231.3 239.256 231.24 239.316 231.192C239.436 231.084 239.568 230.988 239.688 230.904C240.372 230.412 241.068 229.992 241.788 229.644C241.884 229.596 241.98 229.548 242.076 229.512C244.908 228.204 247.908 227.952 250.572 228.264C253.74 228.612 256.428 229.752 257.82 230.82C257.868 230.856 257.904 230.88 257.952 230.916C258.228 231.132 258.432 231.348 258.588 231.552C258.864 231.924 259.14 232.38 259.428 232.908C259.524 233.076 259.608 233.232 259.692 233.412C259.728 233.484 259.764 233.556 259.8 233.64C262.56 239.232 265.86 251.136 268.932 264.324H268.92Z" fill="#EBEBEB"/>
<path d="M259.716 233.304C259.716 233.304 259.656 233.28 259.656 233.304C259.992 236.196 260.556 242.904 255.276 242.82C253.152 242.784 251.172 241.764 249.504 240.756C247.8 239.712 246.264 238.464 244.872 237.12C243.324 235.632 241.728 234.06 240.492 232.356C240.444 232.284 240.312 232.368 240.372 232.44C241.704 234.132 242.82 235.908 244.344 237.492C245.808 239.016 247.452 240.408 249.348 241.524C251.124 242.568 253.236 243.576 255.48 243.516C257.616 243.456 259.116 242.22 259.668 240.48C260.388 238.188 260.232 235.572 259.716 233.304Z" fill="#263238"/>
<path d="M247.477 264.324H221.329C224.257 255 227.425 246.348 230.581 240.384C232.321 237.084 233.989 234.708 235.477 233.004C235.897 232.524 236.293 232.092 236.689 231.708C239.809 228.648 241.897 228.6 241.897 228.6C241.897 228.6 241.969 228.96 242.065 229.512C242.197 230.256 242.413 231.432 242.689 232.896C242.833 233.664 242.977 234.516 243.145 235.416C243.193 235.716 243.253 236.016 243.313 236.328C244.741 244.32 246.817 256.44 247.369 262.26C247.417 262.824 247.465 263.52 247.489 264.324H247.477Z" fill="#BA68C8"/>
<path d="M270.505 264.324H265.957C265.837 262.548 265.741 261.36 265.681 260.988C265.369 259.116 262.261 247.236 260.041 238.812C259.957 238.488 259.873 238.176 259.789 237.876C259.585 237.084 259.381 236.328 259.189 235.62C258.613 233.46 258.169 231.768 257.929 230.904C257.929 230.868 257.917 230.832 257.905 230.796C257.821 230.472 257.773 230.292 257.761 230.256C257.965 230.4 258.169 230.58 258.373 230.784C258.697 231.108 259.021 231.492 259.345 231.936C263.065 237.012 267.013 250.032 270.493 264.324H270.505Z" fill="#BA68C8"/>
<path d="M239.725 241.956C238.033 248.988 236.149 257.04 234.505 264.324H215.017C219.709 254.772 225.085 245.496 230.257 238.524C231.565 236.76 233.569 234.504 235.489 233.004C236.845 231.936 238.153 231.24 239.125 231.36C239.665 231.42 240.109 231.732 240.409 232.368C240.445 232.452 240.481 232.548 240.517 232.644C241.045 234.132 240.925 237.024 239.737 241.98L239.725 241.956Z" fill="#FFC4C0"/>
<path d="M240.445 240.276C240.049 242.256 239.437 245.064 238.705 248.328C237.649 253.08 236.341 258.792 235.069 264.336H214.141C219.793 253.116 226.021 242.796 230.197 237.768C232.825 234.6 234.997 232.644 236.677 231.72C237.745 231.144 238.621 230.988 239.293 231.204C239.833 231.384 240.241 231.804 240.529 232.44C240.601 232.584 240.649 232.752 240.709 232.92C241.189 234.48 241.093 236.988 240.433 240.288L240.445 240.276Z" fill="#BA68C8"/>
<path d="M238.729 248.244C238.729 248.244 238.729 248.292 238.717 248.316C238.417 250.008 238.117 251.7 237.793 253.392C237.733 253.728 237.661 254.052 237.601 254.388C236.965 257.7 236.281 261.012 235.561 264.312H234.625C235.873 258.924 237.253 253.56 238.729 248.232V248.244Z" fill="#263238"/>
<path d="M239.161 250.116C239.077 251.82 238.369 253.5 237.265 254.808C237.805 253.224 238.477 251.664 239.161 250.116Z" fill="#263238"/>
<path d="M255.973 239.688C252.313 240.672 244.501 236.568 241.717 231.396C241.525 231.036 242.101 227.316 242.569 222.744C242.845 219.972 243.097 216.888 243.109 214.044C243.109 213.456 260.869 218.484 260.869 218.484C260.869 218.484 259.081 224.412 259.081 229.368C259.081 229.776 259.129 230.16 259.201 230.532C259.201 230.58 259.225 230.652 259.225 230.724C259.573 232.932 259.897 238.632 255.985 239.688H255.973Z" fill="#FFC4C0"/>
<path d="M259.189 230.532C259.189 230.532 259.201 230.652 259.201 230.724C258.649 230.796 258.037 230.82 257.377 230.808C246.913 230.508 244.237 217.38 243.721 214.056C246.877 214.536 260.857 218.484 260.857 218.484C260.857 218.484 259.069 224.424 259.057 229.368C259.057 229.776 259.105 230.16 259.177 230.532H259.189Z" fill="#263238"/>
<path d="M239.952 191.94C238.188 198.3 241.968 216.432 246.552 220.38C253.2 226.104 263.856 226.404 268.668 218.46C273.324 210.768 267.984 187.224 262.872 183.648C255.36 178.392 242.556 182.556 239.94 191.94H239.952Z" fill="#FFC4C0"/>
<path d="M256.105 203.316C256.105 203.316 256.021 203.388 256.033 203.448C256.297 204.672 256.405 206.112 255.373 206.724C255.337 206.748 255.361 206.808 255.397 206.796C256.717 206.352 256.561 204.444 256.105 203.328V203.316Z" fill="#263238"/>
<path d="M254.773 202.236C252.769 202.464 253.369 206.448 255.217 206.232C257.041 206.028 256.453 202.044 254.773 202.236Z" fill="#263238"/>
<path d="M263.389 202.452C263.389 202.452 263.497 202.5 263.497 202.548C263.641 203.784 264.013 205.188 265.189 205.428C265.225 205.428 265.237 205.5 265.189 205.5C263.797 205.5 263.317 203.652 263.389 202.452Z" fill="#263238"/>
<path d="M264.3 201C266.268 200.556 267.012 204.516 265.188 204.924C263.4 205.332 262.656 201.372 264.3 201Z" fill="#263238"/>
<path d="M252.925 200.652C253.453 200.436 253.897 200.148 254.389 199.884C254.941 199.584 255.421 199.404 255.733 198.816C255.901 198.504 255.733 198 255.445 197.82C254.773 197.376 253.993 197.58 253.309 197.916C252.565 198.276 252.085 198.756 251.737 199.5C251.401 200.232 252.241 200.94 252.925 200.652Z" fill="#263238"/>
<path d="M265.537 198.768C264.973 198.768 264.457 198.66 263.893 198.588C263.257 198.516 262.753 198.516 262.249 198.084C261.973 197.856 261.949 197.328 262.141 197.052C262.609 196.392 263.401 196.296 264.157 196.356C264.985 196.416 265.609 196.68 266.209 197.256C266.785 197.808 266.281 198.78 265.525 198.768H265.537Z" fill="#263238"/>
<path d="M255.949 214.224C256.237 214.524 256.513 214.944 256.969 215.004C257.401 215.064 257.917 214.884 258.325 214.752C258.361 214.74 258.409 214.788 258.373 214.824C258.025 215.292 257.329 215.556 256.765 215.424C256.201 215.304 255.949 214.8 255.841 214.272C255.829 214.2 255.925 214.176 255.961 214.224H255.949Z" fill="#263238"/>
<path d="M256.633 210.756C257.401 211.788 258.469 212.316 259.585 212.46C260.089 212.532 260.605 212.508 261.109 212.424C261.205 212.424 261.313 212.4 261.397 212.376C261.493 212.364 261.565 212.34 261.661 212.316C261.805 212.28 261.877 212.16 261.889 212.016C261.889 212.016 261.889 211.92 261.865 211.884V211.764C261.817 210.804 261.625 209.352 261.625 209.352C261.985 209.508 264.949 210.276 264.889 209.772C264.781 208.884 264.661 207.96 264.529 207.036C264.073 203.688 262.345 200.1 261.265 196.968C261.229 196.836 261.013 196.884 261.037 197.016C261.325 200.376 263.245 203.76 263.737 207.108C263.833 207.732 263.905 208.356 263.977 208.98C263.389 208.8 261.313 208.38 260.809 208.428C260.677 208.476 261.229 211.224 261.205 211.656C261.205 211.656 261.205 211.68 261.205 211.704C259.609 212.016 258.361 211.608 256.729 210.636C256.633 210.576 256.537 210.66 256.621 210.756H256.633Z" fill="#263238"/>
<path d="M267.624 190.008C266.868 188.544 266.1 188.328 266.1 188.328C266.1 188.328 265.848 186.504 263.88 184.416C262.14 182.568 260.508 182.244 260.052 182.184C259.968 182.184 259.92 182.184 259.92 182.184C259.92 182.184 259.896 182.16 259.848 182.124C259.464 181.836 257.676 180.636 254.46 180.492C253.62 180.456 251.148 180.768 250.428 181.188C249.6 181.668 248.592 181.344 247.68 181.452C246.828 181.56 246 181.836 245.268 182.28C244.656 182.64 244.092 183.108 243.612 183.672C243.336 183.996 243.096 184.368 242.856 184.728C242.46 185.34 242.04 185.592 241.416 185.868C240.096 186.468 239.1 187.632 238.608 189.168C238.32 190.068 238.272 190.98 238.38 191.94C238.5 193.104 237.36 193.824 237.048 194.892C236.544 196.608 237.216 198.492 238.536 199.524C237.6 200.424 237.204 201.912 237.408 203.328C237.504 203.964 237.708 204.576 238.044 205.128C238.716 206.256 239.772 206.772 240.876 207.024C241.14 207.084 241.404 207.132 241.668 207.168H241.692C241.944 207.204 242.184 207.204 242.436 207.18C242.484 207.18 242.52 207.18 242.568 207.18C243.324 207.18 244.02 206.916 244.62 206.472C246.204 205.332 247.056 202.98 246.024 200.784V200.76C246.024 200.76 247.992 199.992 249.372 197.58C250.212 196.116 250.296 194.244 250.056 192.48C253.776 194.136 258.192 191.352 258.18 186.876C259.308 187.812 262.344 189.204 263.58 188.616C264.612 192.18 267.072 193.392 267.984 193.452C268.056 193.452 268.116 193.452 268.176 193.452C268.272 193.44 268.512 191.676 267.636 190.008H267.624ZM246.024 200.952C246.672 202.776 246.108 204.504 244.992 205.632C245.664 204.696 246.096 203.46 246.024 200.952ZM254.052 192.096C255.924 191.268 257.388 189.444 257.868 187.032C257.628 189.804 256.08 191.424 254.052 192.096Z" fill="#263238"/>
<path d="M244.932 206.88C244.932 206.88 240.552 201.18 237.948 202.764C235.344 204.348 238.824 212.748 242.016 213.768C245.208 214.788 246.216 211.86 246.216 211.86L244.944 206.868L244.932 206.88Z" fill="#FFC4C0"/>
<path d="M239.004 205.14C239.004 205.14 238.944 205.212 238.992 205.224C241.236 206.016 242.484 208.008 243.384 210.084C242.688 209.304 241.788 208.896 240.732 209.724C240.672 209.772 240.732 209.856 240.792 209.844C241.68 209.616 242.34 209.736 242.976 210.432C243.432 210.924 243.756 211.56 244.092 212.136C244.2 212.328 244.548 212.208 244.464 211.98L244.44 211.932C244.368 209.124 242.016 205.296 238.992 205.152L239.004 205.14Z" fill="#263238"/>
<path d="M222.815 566.58C219.779 567.564 133.295 566.436 130.031 564.3C128.783 563.508 128.207 550.896 127.955 535.644C127.955 535.488 127.955 535.32 127.955 535.164C127.895 532.02 127.859 528.78 127.847 525.504C127.847 525.048 127.847 524.604 127.835 524.148L132.035 479.28L189.887 479.856L184.175 524.304L184.103 526.068L183.755 535.272L183.719 536.22C183.719 536.22 216.635 551.46 219.971 554.184C223.283 556.896 225.839 565.62 222.815 566.592V566.58Z" fill="#FFC4C0"/>
<path d="M222.815 566.58C219.779 567.564 133.295 566.436 130.031 564.3C128.783 563.508 128.207 550.896 127.955 535.644C127.955 535.488 127.955 535.32 127.955 535.164C127.895 532.02 127.859 528.78 127.847 525.504C127.847 525.048 127.847 524.604 127.835 524.148L184.175 524.304L184.103 526.068L183.755 535.272L183.719 536.22C183.719 536.22 216.635 551.46 219.971 554.184C223.283 556.896 225.839 565.62 222.815 566.592V566.58Z" fill="#EBEBEB"/>
<path d="M222.827 566.58C221.267 567.084 197.771 567.024 174.803 566.568C170.183 566.472 165.599 566.364 161.219 566.256C144.839 565.812 131.303 565.128 130.043 564.312C128.795 563.532 128.231 551.268 127.979 536.292C127.979 536.076 127.967 535.872 127.967 535.656C127.967 535.5 127.967 535.32 127.955 535.164H128.015L183.755 535.272L183.731 536.22C183.731 536.22 216.647 551.448 219.983 554.172C223.307 556.896 225.863 565.62 222.827 566.58Z" fill="#BA68C8"/>
<path opacity="0.4" d="M222.827 566.58C221.267 567.084 197.771 567.024 174.803 566.568C170.183 566.472 165.599 566.364 161.219 566.256C144.839 565.812 131.303 565.128 130.043 564.312C128.795 563.532 128.231 551.268 127.979 536.292C127.979 536.076 127.967 535.872 127.967 535.656C127.967 535.5 127.967 535.32 127.955 535.164H128.015L183.755 535.272L183.731 536.22C183.731 536.22 216.647 551.448 219.983 554.172C223.307 556.896 225.863 565.62 222.827 566.58Z" fill="black"/>
<path d="M221.879 563.22C207.299 562.668 148.463 561.84 134.015 562.404C133.895 562.404 133.895 562.488 134.015 562.5C148.451 563.352 207.287 563.712 221.867 563.46C222.179 563.46 222.179 563.232 221.867 563.22H221.879Z" fill="#263238"/>
<path d="M189.971 535.5C184.247 534.36 177.215 535.14 172.787 539.172C172.619 539.328 172.835 539.568 173.027 539.52C178.715 537.804 184.007 536.736 189.947 536.232C190.367 536.196 190.391 535.584 189.983 535.512L189.971 535.5Z" fill="#263238"/>
<path d="M194.074 538.056C188.35 536.916 181.318 537.696 176.89 541.728C176.722 541.884 176.938 542.124 177.13 542.064C182.818 540.348 188.11 539.28 194.05 538.776C194.47 538.74 194.494 538.128 194.086 538.056H194.074Z" fill="#263238"/>
<path d="M198.179 540.6C192.455 539.46 185.423 540.24 180.995 544.272C180.827 544.428 181.043 544.668 181.235 544.608C186.923 542.892 192.215 541.824 198.155 541.32C198.575 541.284 198.599 540.672 198.191 540.6H198.179Z" fill="#263238"/>
<path opacity="0.1" d="M174.803 566.556C170.183 566.46 165.599 566.352 161.219 566.244C144.839 565.8 131.303 565.116 130.043 564.3C128.795 563.52 128.231 551.256 127.979 536.28C127.979 536.064 127.967 535.86 127.967 535.644C127.967 535.488 127.967 535.308 127.955 535.152H128.015C135.647 540.516 162.563 558.42 174.803 566.556Z" fill="black"/>
<path d="M187.559 535.452H125.267C125.267 535.452 137.807 388.764 137.315 386.232C136.691 382.98 133.019 368.256 128.123 349.02C126.587 342.996 124.931 336.54 123.215 329.844C118.571 311.748 113.447 291.96 108.995 274.752C102.299 248.964 97.0791 228.936 97.0791 228.936H149.867C149.867 228.936 156.023 248.436 163.775 273.816C176.411 315.06 193.295 371.808 194.963 385.608C197.663 407.892 187.571 535.452 187.571 535.452H187.559Z" fill="#263238"/>
<path d="M184.799 524.832C175.283 524.628 178.019 524.556 168.503 524.46C163.847 524.412 133.247 524.148 128.903 524.868C128.807 524.88 128.807 525.048 128.903 525.06C133.259 525.78 163.847 525.516 168.503 525.468C178.019 525.372 175.283 525.3 184.799 525.096C184.979 525.096 184.979 524.82 184.799 524.82V524.832Z" fill="#37474F"/>
<path d="M149.039 377.34C146.999 368.34 143.951 359.508 141.287 350.676C135.887 332.712 130.451 314.772 124.991 296.832C122.267 287.856 119.531 278.892 116.771 269.928C115.379 265.404 113.987 260.88 112.571 256.356C111.179 251.94 109.607 247.548 108.359 243.096C107.855 241.284 107.567 242.28 108.227 244.584C109.535 249.228 110.843 253.884 112.187 258.516C114.875 267.696 117.575 276.864 120.287 286.032C125.687 304.284 131.159 322.512 136.631 340.74C139.367 349.884 142.127 359.016 144.875 368.148C146.183 372.516 147.467 376.908 148.247 381.408C149.051 386.1 149.099 390.852 148.799 395.592C148.199 405.12 147.095 414.636 146.219 424.14C145.343 433.668 144.455 443.196 143.579 452.724C141.827 471.684 140.063 491.844 138.359 510.816C138.143 513.216 137.927 515.628 137.747 518.028C137.687 518.832 138.251 518.928 138.335 518.16C140.387 499.416 142.607 479.244 144.371 460.464C146.123 441.78 147.875 423.096 149.627 404.412C150.071 399.72 150.563 395.016 150.563 390.3C150.563 385.92 150.011 381.612 149.051 377.34H149.039Z" fill="#37474F"/>
<path d="M143.867 228.936C140.207 257.292 133.211 310.452 128.123 349.02C116.219 302.292 97.0674 228.936 97.0674 228.936H143.867Z" fill="#37474F"/>
<path d="M156.827 566.22C153.791 567.216 67.3071 566.4 64.0311 564.276C62.7711 563.496 62.1591 550.884 61.8471 535.62C61.8471 535.464 61.8471 535.296 61.8471 535.14C61.7751 531.996 61.7271 528.756 61.7031 525.48C61.7031 525.024 61.7031 524.58 61.6791 524.124C61.4751 502.104 63.0711 479.256 63.0711 479.256L119.603 479.628L118.019 524.076L117.959 525.84L117.647 535.044L117.611 535.992C117.611 535.992 150.575 551.112 153.935 553.824C157.259 556.524 159.851 565.248 156.815 566.22H156.827Z" fill="#FFC4C0"/>
<path d="M156.827 566.22C153.791 567.216 67.3067 566.4 64.0307 564.276C62.7707 563.496 62.1587 550.884 61.8467 535.62C61.8467 535.464 61.8467 535.296 61.8467 535.14C61.7747 531.996 61.7267 528.756 61.7027 525.48C61.7027 525.024 61.7027 524.58 61.6787 524.124L118.019 524.076L117.959 525.84L117.647 535.044L117.611 535.992C117.611 535.992 150.575 551.112 153.935 553.824C157.259 556.524 159.851 565.248 156.815 566.22H156.827Z" fill="#EBEBEB"/>
<path d="M156.827 566.22C153.791 567.216 67.3067 566.4 64.0307 564.276C62.7707 563.496 62.1587 550.884 61.8467 535.62C61.8467 535.464 61.8467 535.296 61.8467 535.14L117.647 535.032L117.611 535.98C117.611 535.98 150.575 551.1 153.935 553.812C157.259 556.512 159.851 565.236 156.815 566.208L156.827 566.22Z" fill="#BA68C8"/>
<path opacity="0.4" d="M156.827 566.22C153.791 567.216 67.3067 566.4 64.0307 564.276C62.7707 563.496 62.1587 550.884 61.8467 535.62C61.8467 535.464 61.8467 535.296 61.8467 535.14L117.647 535.032L117.611 535.98C117.611 535.98 150.575 551.1 153.935 553.812C157.259 556.512 159.851 565.236 156.815 566.208L156.827 566.22Z" fill="black"/>
<path d="M155.879 562.848C141.299 562.356 82.4628 561.744 68.0148 562.356C67.8948 562.356 67.8948 562.44 68.0148 562.452C82.4508 563.256 141.299 563.4 155.879 563.088C156.191 563.088 156.191 562.86 155.879 562.848Z" fill="#263238"/>
<path d="M123.863 535.26C118.139 534.132 111.107 534.948 106.691 539.004C106.523 539.16 106.751 539.4 106.931 539.34C112.607 537.612 117.899 536.508 123.839 535.98C124.259 535.944 124.283 535.332 123.863 535.26Z" fill="#263238"/>
<path d="M127.99 537.792C122.266 536.664 115.234 537.48 110.818 541.524C110.65 541.68 110.878 541.92 111.058 541.86C116.734 540.132 122.026 539.028 127.966 538.5C128.386 538.464 128.41 537.852 127.99 537.78V537.792Z" fill="#263238"/>
<path d="M132.106 540.324C126.382 539.196 119.35 540.012 114.934 544.056C114.766 544.212 114.982 544.452 115.174 544.392C120.85 542.664 126.142 541.56 132.082 541.032C132.502 540.996 132.526 540.384 132.106 540.312V540.324Z" fill="#263238"/>
<path d="M148.152 228.936C148.152 228.936 146.94 254.196 141.156 274.2C140.688 275.856 140.196 277.476 139.644 279.048C139.644 279.048 133.62 281.232 124.428 286.872C124.428 286.872 123.816 307.2 123.216 329.856C122.544 355.188 121.836 383.448 121.98 389.448C122.508 411.876 119.172 535.176 119.172 535.176L56.8916 535.428C56.8916 535.428 68.1476 397.728 68.0756 389.508C67.9556 376.308 71.0876 317.94 73.5116 275.388C74.9876 249.168 79.3316 228.948 79.3316 228.948H148.152V228.936Z" fill="#263238"/>
<path d="M117.048 524.088C107.532 523.932 110.268 523.836 100.752 523.788C96.0961 523.764 65.4961 523.632 61.1521 524.364C61.0561 524.376 61.0561 524.544 61.1521 524.556C65.5081 525.252 96.0961 524.856 100.752 524.796C110.268 524.664 107.532 524.604 117.048 524.364C117.228 524.364 117.228 524.088 117.048 524.088Z" fill="#37474F"/>
<path d="M81.4565 237.96C80.3165 272.7 79.0925 307.452 77.5445 342.18C75.9845 377.028 67.8005 501.768 65.7125 521.148C65.7005 521.28 65.8925 521.328 65.9165 521.196C70.4525 486.732 72.9725 435.72 75.2045 401.028C77.4365 366.348 78.9485 331.608 80.1245 296.88C80.7965 277.236 81.3005 257.58 81.8885 237.936C81.8885 237.66 81.4685 237.684 81.4565 237.96Z" fill="#37474F"/>
<path d="M142.236 277.536C136.032 279.996 130.092 283.356 124.428 286.86C124.2 286.992 124.368 287.34 124.62 287.232C130.632 284.316 136.764 281.508 142.596 278.256C143.052 278.004 142.704 277.356 142.236 277.536Z" fill="#37474F"/>
<path d="M142.584 256.104C142.176 258.312 141.636 260.508 141.156 262.704C140.712 264.768 140.376 266.88 139.836 268.92C139.308 270.9 138.468 272.712 136.944 274.128C136.14 274.884 135.24 275.544 134.376 276.24C133.908 276.612 133.404 276.972 132.924 277.344C132.984 277.056 133.032 276.756 133.092 276.456C133.236 275.616 133.38 274.776 133.524 273.936C133.836 272.076 134.136 270.204 134.424 268.332C134.988 264.66 135.504 260.952 136.272 257.316C136.308 257.172 136.08 257.112 136.044 257.256C135.132 260.856 134.124 264.42 133.32 268.056C132.924 269.844 131.532 278.64 131.472 279.264C131.412 279.912 131.352 280.548 131.328 281.196C131.304 281.832 131.184 282.54 131.328 283.176C131.364 283.332 131.556 283.308 131.628 283.2C131.952 282.648 132.024 281.916 132.192 281.292C132.348 280.668 132.492 280.032 132.612 279.384C132.648 279.156 132.684 278.916 132.72 278.688C133.584 278.16 134.388 277.464 135.204 276.876C136.08 276.24 136.968 275.628 137.796 274.932C139.38 273.6 140.364 271.968 140.952 270C141.564 267.948 141.756 265.788 141.984 263.676C142.26 261.18 142.464 258.66 142.812 256.176C142.836 256.032 142.608 255.972 142.584 256.116V256.104Z" fill="#37474F"/>
<path d="M131.591 167.856C135.719 180.264 154.139 219.672 161.891 222.42C169.955 225.288 201.095 228.852 208.007 223.404C211.391 220.74 212.567 192.252 208.007 192.936C203.447 193.62 175.979 194.652 172.727 193.476C169.487 192.312 147.635 160.548 138.779 152.856C123.503 139.596 129.383 161.184 131.603 167.856H131.591Z" fill="#FFC4C0"/>
<path d="M201.096 192.456L200.64 227.952C200.64 227.952 168.708 228.036 160.2 223.56C151.692 219.084 133.692 178.056 129.192 162.36C124.692 146.664 131.892 144.228 143.328 155.76C154.764 167.292 171.96 191.424 174 191.916C176.04 192.42 201.084 192.456 201.084 192.456H201.096Z" fill="#EBEBEB"/>
<path d="M191.784 209.976C191.808 207.168 191.988 195.912 192.252 193.128C192.252 193.08 192.324 193.08 192.336 193.128C192.612 195.84 192.756 206.94 192.732 209.76C192.696 215.376 192.768 221.028 192.108 226.608C192.108 226.704 191.928 226.728 191.928 226.608C191.508 221.076 191.736 215.508 191.784 209.964V209.976Z" fill="#263238"/>
<path opacity="0.1" d="M129.192 162.36C133.692 178.068 151.692 219.084 160.2 223.56C164.28 225.708 173.736 226.812 182.484 227.364L132.348 148.608C128.064 148.128 126.444 152.772 129.192 162.36Z" fill="black"/>
<path d="M157.955 252.288L74.2314 252.252C74.2314 252.252 88.4394 179.388 116.603 152.616C120.083 149.304 129.287 146.592 136.715 154.632C146.699 165.432 158.147 252.012 157.943 252.288H157.955Z" fill="#BA68C8"/>
<path d="M120.696 149.052C120.696 149.052 123.072 175.908 122.688 197.988C121.632 257.808 116.94 368.52 114 372.06C112.26 374.148 56.7236 364.476 56.7236 364.476C56.7236 364.476 68.5556 242.484 88.4396 195.504C106.884 151.944 120.708 149.052 120.708 149.052H120.696Z" fill="#EBEBEB"/>
<path d="M72.2281 296.184C71.3761 305.604 71.1961 316.32 73.0801 318.396C76.6321 322.296 86.6641 322.572 89.8081 322.728C92.9281 322.884 104.184 323.532 107.148 317.904C108.456 315.42 109.536 302.256 109.776 297.588C109.872 295.692 109.992 286.344 109.908 285.3C109.884 285.048 109.224 285.036 109.188 285.204C108.972 286.26 108.84 290.136 108.744 290.868C90.5401 292.14 79.4761 289.536 73.7401 288.084C73.8481 286.344 73.9201 284.988 73.9921 283.236C76.4401 284.004 84.7441 285.492 91.0081 285.852C97.2721 286.212 106.752 285.828 109.848 285.612C109.992 285.612 109.932 284.904 109.716 284.892C107.364 284.784 99.1561 285.108 90.9361 284.628C82.9801 284.16 73.4761 282.228 73.4401 282.228C73.1641 282.3 72.6121 291.66 72.2041 296.172L72.2281 296.184ZM74.2441 317.388C72.3841 314.976 72.5281 308.376 72.7561 304.428C73.0801 298.992 73.3441 294.66 73.6801 289.224C87.3961 293.268 102.804 292.572 108.672 291.732C108.648 291.96 108.096 303.432 107.772 307.08C107.364 311.736 106.968 315.948 105.036 318.264C103.38 320.256 98.9281 322.08 88.9801 321.492C81.7801 321.06 75.7921 319.404 74.2441 317.388Z" fill="#DBDBDB"/>
<path d="M138.035 154.704C138.035 154.704 145.379 199.224 146.387 206.412C147.395 213.6 154.307 360.984 156.575 366.408C157.343 368.244 190.283 351.66 190.283 351.66C190.283 351.66 160.511 257.808 159.119 250.5C153.359 220.392 146.135 174.528 145.055 170.628C140.795 155.232 138.035 154.704 138.035 154.704Z" fill="#EBEBEB"/>
<path d="M130.26 169.248L134.16 164.328L138.288 169.236L136.788 173.448L132.288 173.64L130.26 169.248Z" fill="#263238"/>
<path d="M132.288 173.64L129.264 229.296L138.552 245.352L146.412 229.26L136.788 173.448L132.288 173.64Z" fill="#263238"/>
<path d="M158.897 168.419L146.71 228.001L192.478 237.363L204.665 177.781L158.897 168.419Z" fill="#BA68C8"/>
<path opacity="0.6" d="M158.897 168.419L146.71 228.001L192.478 237.363L204.665 177.781L158.897 168.419Z" fill="black"/>
<path d="M160.853 168.828L148.666 228.411L194.434 237.772L206.622 178.19L160.853 168.828Z" fill="#BA68C8"/>
<path opacity="0.4" d="M160.853 168.828L148.666 228.411L194.434 237.772L206.622 178.19L160.853 168.828Z" fill="black"/>
<path d="M172.007 174.795L193.702 179.209L195.04 172.636L173.344 168.222L172.007 174.795Z" fill="#C7C7C7"/>
<path d="M178.26 169.236L180.936 169.776L181.548 166.74L188.04 168.06L187.428 171.096L190.092 171.636L191.22 166.116L179.352 163.704L178.26 169.236Z" fill="#C7C7C7"/>
<path d="M207.96 188.232C209.556 192.72 214.128 198.552 214.188 202.092C214.248 205.284 211.512 206.124 211.512 206.124C211.512 206.124 214.824 208.212 214.356 211.44C214.116 213.096 211.248 214.164 211.248 214.164C211.248 214.164 213.828 215.952 213.228 218.796C212.748 221.052 209.964 221.784 209.964 221.784C209.964 221.784 211.632 224.652 210.42 226.8C207.936 231.156 188.22 229.152 185.904 221.568C184.824 218.04 189.624 218.784 189.624 218.784C189.624 218.784 183 216.036 183.3 211.956C183.612 207.876 189.78 209.232 189.78 209.232C189.78 209.232 183.384 206.52 184.128 202.32C184.908 197.952 190.848 200.364 190.848 200.364C190.848 200.364 186.768 196.944 188.076 193.86C190.236 188.772 197.868 196.224 202.308 195.636L205.428 188.736L207.972 188.22L207.96 188.232Z" fill="#FFC4C0"/>
<path d="M211.284 194.856C210.144 190.476 215.904 185.796 215.412 181.452C214.752 175.572 207.708 180.552 205.416 188.76L204.756 195.444L211.284 194.856Z" fill="#FFC4C0"/>
<path d="M209.544 221.977C209.604 221.977 209.616 222.073 209.544 222.085C202.896 223.009 195.312 221.977 189.348 218.809C189.156 218.701 189.24 218.341 189.468 218.413C196.236 220.513 202.416 221.833 209.532 221.977H209.544Z" fill="#263238"/>
<path d="M211.344 214.225C211.416 214.225 211.416 214.357 211.344 214.369C204.492 215.281 195.972 213.889 189.528 209.425C189.312 209.269 189.264 208.909 189.528 209.065C194.04 211.705 204.936 214.117 211.344 214.225Z" fill="#263238"/>
<path d="M190.475 199.921C196.811 203.965 203.819 205.573 211.247 206.185C211.343 206.185 211.319 206.329 211.247 206.341C207.527 207.025 202.835 206.149 199.247 205.141C195.803 204.181 192.887 202.633 190.343 200.137C190.247 200.041 190.343 199.825 190.487 199.921H190.475Z" fill="#263238"/>
<path d="M147.672 171.048C147.672 171.048 145.068 164.016 150.012 162.636C154.956 161.256 156.384 168.612 156.384 168.612L147.672 171.048Z" fill="#455A64"/>
<path d="M170.532 219.084L169.008 226.272L168.516 228.648L166.848 226.884L161.82 221.532L147.6 170.772L156.312 168.336L170.532 219.096V219.084Z" fill="#455A64"/>
<path d="M169.008 226.26L168.516 228.636L166.848 226.872L169.008 226.26Z" fill="#37474F"/>
<path d="M156.945 167.848L146.777 170.699L147.344 172.721L157.512 169.87L156.945 167.848Z" fill="#37474F"/>
<path d="M157.572 170.081L147.404 172.931L147.971 174.953L158.139 172.103L157.572 170.081Z" fill="#37474F"/>
<path d="M147.972 174.948L151.248 174.024L154.596 192.9L153.36 193.164L147.972 174.948Z" fill="#37474F"/>
<path d="M108.9 158.916C86.3758 182.424 60.5998 222.396 70.8958 231.372C80.2918 239.58 106.716 234.468 129.048 226.452C133.296 224.928 127.884 188.076 123.528 190.176C115.896 193.848 106.524 195.948 105.96 196.08C104.736 196.38 113.376 186.156 121.32 166.86C129.396 147.252 121.776 145.476 108.9 158.904V158.916Z" fill="#FFC4C0"/>
<path d="M174.947 191.28C174.623 195.48 164.339 193.812 164.339 193.812C164.339 193.812 166.691 195.528 167.147 198.288C167.675 201.444 162.959 203.664 162.959 203.664C162.959 203.664 164.975 205.896 165.167 208.86C165.371 211.932 160.931 214.848 160.931 214.848C160.931 214.848 161.663 217.956 159.995 220.644C157.139 225.228 148.859 224.664 143.651 225.324C138.083 226.032 129.551 226.296 126.131 227.484L120.275 191.616C120.275 191.616 143.243 179.424 149.411 180.216C154.619 180.888 175.427 184.848 174.935 191.268L174.947 191.28Z" fill="#FFC4C0"/>
<path d="M164.255 193.692C158.891 191.652 153.059 190.896 147.419 190.236C147.299 190.224 147.275 190.416 147.395 190.428C153.011 191.028 158.603 193.14 164.195 193.956C164.351 193.98 164.399 193.752 164.255 193.692Z" fill="#263238"/>
<path d="M162.839 203.232C161.615 202.812 160.247 202.788 158.963 202.704C157.583 202.608 156.191 202.536 154.811 202.488C152.039 202.392 149.267 202.356 146.495 202.404C146.375 202.404 146.339 202.596 146.471 202.596C149.231 202.692 151.991 202.836 154.751 203.052C156.131 203.16 157.511 203.28 158.891 203.412C160.175 203.532 161.519 203.772 162.803 203.604C162.995 203.58 163.031 203.292 162.851 203.232H162.839Z" fill="#263238"/>
<path d="M160.811 214.848C159.755 214.44 158.411 214.572 157.295 214.56C156.035 214.548 154.763 214.524 153.503 214.488C150.971 214.428 148.451 214.356 145.931 214.212C145.811 214.212 145.787 214.404 145.907 214.404C148.475 214.572 151.031 214.776 153.599 214.92C154.859 214.992 156.119 215.052 157.379 215.112C158.447 215.16 159.779 215.34 160.811 214.98C160.871 214.956 160.859 214.872 160.811 214.848Z" fill="#263238"/>
<path d="M118.296 188.652L125.532 230.676C125.532 230.676 72.8399 242.856 67.7879 229.464C62.7359 216.072 94.8719 167.796 113.004 154.272C131.124 140.748 123.864 162.66 123.276 164.4C120.66 172.176 108.924 192.336 108.924 192.336L118.296 188.652Z" fill="#EBEBEB"/>
<path d="M117.396 188.652C111.324 190.596 95.3637 198.012 91.8237 201.132C91.7157 201.228 91.8237 201.396 91.9437 201.312C95.4117 199.008 115.14 190.032 118.212 188.952C118.212 188.952 118.344 189.336 118.416 189.432C118.512 189.576 118.596 189.492 118.596 189.36C118.596 189.264 118.44 188.388 118.404 188.34C118.404 188.34 118.08 188.436 117.42 188.652H117.396Z" fill="#263238"/>
<path d="M112.26 211.908C111.78 208.98 109.92 197.232 109.68 194.28C109.68 194.232 109.752 194.208 109.764 194.256C110.544 197.028 112.716 208.56 113.208 211.5C114.18 217.356 115.296 223.224 115.62 229.152C115.62 229.26 115.464 229.308 115.428 229.2C113.988 223.512 113.208 217.68 112.26 211.908Z" fill="#263238"/>
<path d="M108.504 192.576C110.244 189.06 112.344 185.736 114.24 182.304C116.124 178.896 118.104 175.5 119.868 172.02C119.892 171.972 119.964 172.02 119.952 172.056C118.86 174.432 117.78 176.796 116.628 179.124C116.964 178.764 117.288 178.38 117.6 177.996C118.176 177.3 118.704 176.568 119.22 175.836C119.256 175.788 119.316 175.836 119.292 175.884C118.884 176.724 118.368 177.492 117.768 178.212C117.324 178.752 116.832 179.232 116.328 179.712C115.848 180.66 115.368 181.608 114.852 182.544C112.968 186.012 111.48 189.456 109.092 192.612C109.008 192.72 108.432 192.696 108.48 192.588L108.504 192.576Z" fill="#263238"/>
<path d="M75.5641 234.612C89.6041 236.484 119.532 231.744 125.34 230.724C125.28 230.112 125.304 229.896 125.232 229.032C125.232 228.924 125.4 228.864 125.424 228.996C125.568 229.824 126.072 231.468 125.832 231.552C123.036 232.56 90.2161 238.068 75.5521 234.876C75.3961 234.84 75.3961 234.6 75.5641 234.624V234.612Z" fill="#263238"/>
<path d="M134.976 164.328C130.308 164.664 123.708 156.552 121.56 150.492C121.416 150.072 122.652 146.148 123.924 141.3C124.692 138.36 125.472 135.06 125.964 132.012C126.06 131.388 144.384 139.776 144.384 139.776C144.384 139.776 141.468 145.884 140.628 151.212C140.568 151.656 140.544 152.076 140.556 152.484C140.556 152.544 140.556 152.616 140.556 152.7C140.556 155.148 139.488 164.004 134.976 164.328Z" fill="#FFC4C0"/>
<path d="M125.064 136.632C130.296 148.044 138.576 151.212 140.64 151.2C141.612 145.368 144.396 139.764 144.396 139.764C144.396 139.764 126.072 131.376 125.976 132.012C125.724 133.524 125.412 135.096 125.076 136.644L125.064 136.632Z" fill="#263238"/>
<path d="M121.584 111.816C119.736 118.776 124.116 138.528 129.18 142.776C136.512 148.932 148.164 149.112 153.3 140.376C158.28 131.904 152.124 106.272 146.508 102.456C138.228 96.8279 124.308 101.532 121.584 111.816Z" fill="#FFC4C0"/>
<path d="M139.321 123.924C139.321 123.924 139.225 124.008 139.237 124.056C139.525 125.388 139.621 126.96 138.493 127.632C138.457 127.656 138.469 127.716 138.517 127.704C139.957 127.224 139.801 125.136 139.321 123.924Z" fill="#263238"/>
<path d="M137.869 122.736C135.685 122.964 136.297 127.32 138.325 127.104C140.317 126.9 139.705 122.544 137.869 122.736Z" fill="#263238"/>
<path d="M147.216 122.736C147.216 122.736 147.336 122.784 147.336 122.832C147.516 124.188 147.936 125.7 149.232 125.952C149.268 125.952 149.28 126.024 149.232 126.024C147.708 126.06 147.168 124.032 147.216 122.724V122.736Z" fill="#263238"/>
<path d="M148.188 121.128C150.324 120.612 151.2 124.92 149.22 125.4C147.276 125.868 146.4 121.56 148.188 121.128Z" fill="#263238"/>
<path d="M135.048 120.48C135.66 120.372 136.2 120.18 136.788 120.024C137.46 119.844 138.012 119.76 138.48 119.208C138.732 118.92 138.684 118.344 138.42 118.068C137.808 117.432 136.932 117.456 136.128 117.648C135.24 117.852 134.616 118.236 134.064 118.956C133.524 119.652 134.244 120.612 135.048 120.48Z" fill="#263238"/>
<path d="M149.461 119.292C148.849 119.28 148.273 119.16 147.673 119.088C146.989 119.004 146.425 119.004 145.885 118.524C145.597 118.272 145.561 117.696 145.777 117.396C146.293 116.676 147.157 116.58 147.985 116.652C148.885 116.724 149.569 117.024 150.217 117.648C150.841 118.26 150.277 119.316 149.461 119.292Z" fill="#263238"/>
<path d="M140.112 136.488C140.484 136.764 140.856 137.148 141.36 137.124C141.84 137.1 142.356 136.812 142.764 136.584C142.8 136.56 142.848 136.596 142.836 136.644C142.56 137.208 141.864 137.64 141.228 137.616C140.604 137.592 140.232 137.112 140.004 136.572C139.968 136.5 140.076 136.452 140.124 136.488H140.112Z" fill="#263238"/>
<path d="M140.976 132.252C141.9 133.32 143.088 133.8 144.324 133.872C144.876 133.908 145.44 133.848 145.992 133.716C146.1 133.704 146.208 133.668 146.304 133.632C146.4 133.608 146.484 133.584 146.592 133.548C146.748 133.5 146.82 133.356 146.82 133.212C146.82 133.212 146.808 133.116 146.784 133.068L146.76 132.936C146.64 131.892 146.328 130.332 146.328 130.332C146.736 130.464 148.788 131.076 148.68 130.536C147.792 126.084 146.796 121.128 144.96 116.88C144.912 116.736 144.684 116.808 144.72 116.952C145.404 121.272 146.856 125.436 147.612 129.756C146.964 129.612 145.896 129.312 145.356 129.396C145.212 129.456 146.028 132.408 146.04 132.888C146.04 132.888 146.04 132.912 146.04 132.936C144.324 133.404 142.932 133.056 141.084 132.12C140.976 132.06 140.88 132.168 140.976 132.264V132.252Z" fill="#263238"/>
<path d="M122.664 130.872C125.724 131.436 127.392 127.032 127.992 125.1C128.592 123.168 126.036 112.488 127.236 109.56C128.436 106.632 131.4 104.796 133.932 105.3C136.464 105.804 140.604 108.912 143.136 108.468C144.936 108.156 144.984 104.904 146.244 104.796C149.028 104.544 151.788 111.36 152.568 114.36C152.568 114.36 151.608 99.708 138.168 99.732C125.052 99.756 120.984 108.648 120.216 112.668C118.728 120.372 122.664 130.872 122.664 130.872Z" fill="#263238"/>
<path d="M127.98 129.948C127.98 129.948 123.12 123.78 120.3 125.556C117.48 127.332 121.392 136.44 124.884 137.52C128.376 138.6 129.444 135.384 129.444 135.384L127.992 129.96L127.98 129.948Z" fill="#FFC4C0"/>
<path d="M121.476 128.136C121.476 128.136 121.416 128.208 121.464 128.232C123.924 129.06 125.316 131.22 126.324 133.476C125.556 132.624 124.56 132.204 123.42 133.116C123.36 133.164 123.42 133.26 123.492 133.236C124.464 132.972 125.184 133.104 125.892 133.848C126.396 134.376 126.756 135.06 127.128 135.684C127.248 135.888 127.632 135.756 127.536 135.516L127.512 135.456C127.392 132.396 124.776 128.244 121.476 128.136Z" fill="#263238"/>
<path d="M140.928 152.052L134.076 161.832L122.532 145.296L118.416 149.796C118.416 149.796 127.824 173.04 128.076 172.116L134.148 163.968L139.464 171.36L141.756 155.628L140.916 152.052H140.928Z" fill="#BA68C8"/>
<path d="M141.06 163.656C141.348 161.04 141.708 158.424 141.876 155.808C141.876 155.712 141.744 155.652 141.696 155.748C140.712 158.136 139.668 168.132 139.224 170.496L139.2 170.46C138.984 170.148 134.22 163.908 134.148 163.98C132.924 165.228 128.472 171.156 128.148 171.708C126.66 168.012 120.18 153.348 118.284 149.772C118.224 149.664 118.068 149.712 118.104 149.832C119.316 153.66 127.62 172.98 127.788 172.956C127.884 173.052 133.404 165.768 134.16 164.34C134.916 165.648 139.62 172.572 139.704 172.188C140.304 169.62 140.772 166.284 141.06 163.668V163.656Z" fill="#263238"/>
<path d="M217.98 91.4636C217.98 106.68 205.644 119.016 190.428 119.016C184.284 119.016 178.608 117 174.012 113.58L160.512 117.024L166.128 104.46C164.04 100.584 162.864 96.1556 162.864 91.4636C162.864 76.2476 175.2 63.9116 190.416 63.9116C205.632 63.9116 217.968 76.2476 217.968 91.4636H217.98Z" fill="white"/>
<path d="M217.98 91.4638C218.172 107.4 203.88 120.564 188.028 119.196C182.916 118.812 177.912 116.964 173.76 113.928L174.12 114L160.644 117.54L159.588 117.816L160.032 116.808L165.6 104.22L165.624 104.724C159.264 93.4198 162.36 78.1438 172.404 70.0438C190.476 55.1158 217.968 68.0158 217.98 91.4518V91.4638ZM217.98 91.4638C218.064 73.8598 200.832 60.4198 183.816 65.0878C167.004 69.2638 158.34 88.9918 166.644 104.196L166.776 104.448L166.656 104.7L160.992 117.252L160.38 116.532L173.904 113.184L174.108 113.136L174.264 113.256C178.236 116.28 183.072 118.176 188.076 118.644C203.916 120.276 218.016 107.376 217.98 91.4758V91.4638Z" fill="#263238"/>
<path d="M185.964 107.856L173.616 95.3638L177.768 91.2598L184.98 98.5558L199.956 75.0718L204.876 78.2038L185.964 107.856Z" fill="#BA68C8"/>
</svg>
